<?xml version="1.0" encoding="UTF-8"?>
<svg xmlns="http://www.w3.org/2000/svg" xmlns:xlink="http://www.w3.org/1999/xlink" width="192" height="192" viewBox="0 0 192 192">
<defs>
<radialGradient id="radial-pattern-0" gradientUnits="userSpaceOnUse" cx="0.5" cy="0.5" fx="0.5" fy="0.5" r="0.7" gradientTransform="matrix(192, 0, 0, 192, 0, 0)">
<stop offset="0" stop-color="rgb(10.196078%, 10.196078%, 24.313725%)" stop-opacity="1"/>
<stop offset="1" stop-color="rgb(3.921569%, 3.921569%, 10.196078%)" stop-opacity="1"/>
</radialGradient>
<radialGradient id="radial-pattern-1" gradientUnits="userSpaceOnUse" cx="0.5" cy="0.5" fx="0.5" fy="0.5" r="0.5" gradientTransform="matrix(161.28, 0, 0, 161.28, 15.36, 15.36)">
<stop offset="0" stop-color="rgb(65.490196%, 54.509804%, 98.039216%)" stop-opacity="0.6"/>
<stop offset="1" stop-color="rgb(65.490196%, 54.509804%, 98.039216%)" stop-opacity="0"/>
</radialGradient>
<radialGradient id="radial-pattern-2" gradientUnits="userSpaceOnUse" cx="0.5" cy="0.5" fx="0.5" fy="0.5" r="0.5" gradientTransform="matrix(69.12, 0, 0, 69.12, 61.44, 61.44)">
<stop offset="0" stop-color="rgb(96.078431%, 61.960784%, 4.313725%)" stop-opacity="0.8"/>
<stop offset="1" stop-color="rgb(96.078431%, 61.960784%, 4.313725%)" stop-opacity="0"/>
</radialGradient>
</defs>
<path fill-rule="nonzero" fill="url(#radial-pattern-0)" d="M 28.800781 0 L 163.199219 0 C 179.105469 0 192 15.90625 192 28.800781 L 192 163.199219 C 192 179.105469 179.105469 192 163.199219 192 L 28.800781 192 C 12.894531 192 0 176.09375 0 163.199219 L 0 28.800781 C 0 12.894531 12.894531 0 28.800781 0 Z M 28.800781 0 "/>
<path fill="none" stroke-width="1.536" stroke-linecap="butt" stroke-linejoin="miter" stroke="rgb(2.352941%, 71.372549%, 83.137255%)" stroke-opacity="0.4" stroke-miterlimit="4" d="M 136.320312 96 C 136.320312 107.132812 118.269531 116.160156 96 116.160156 C 73.730469 116.160156 55.679688 107.132812 55.679688 96 C 55.679688 84.867188 73.730469 75.839844 96 75.839844 C 118.269531 75.839844 136.320312 84.867188 136.320312 96 Z M 136.320312 96 "/>
<path fill="none" stroke-width="1.152" stroke-linecap="butt" stroke-linejoin="miter" stroke="rgb(48.627451%, 22.745098%, 92.941176%)" stroke-opacity="0.3" stroke-miterlimit="4" d="M 153.120491 95.998093 C 153.120248 112.700796 127.545302 126.239628 95.998499 126.239587 C 64.451695 126.239546 38.880695 112.699275 38.879509 96.001907 C 38.879752 79.299204 64.454698 65.760372 96.001501 65.760413 C 127.548305 65.760454 153.119305 79.300725 153.120491 95.998093 Z M 153.120491 95.998093 " transform="matrix(0.866025, 0.5, -0.5, 0.866025, 60.861561, -35.138439)"/>
<path fill="none" stroke-width="0.768" stroke-linecap="butt" stroke-linejoin="miter" stroke="rgb(40.392157%, 90.980392%, 97.647059%)" stroke-opacity="0.2" stroke-miterlimit="4" d="M 169.919626 95.998702 C 169.921729 118.268496 136.825988 136.318564 96.000223 136.319926 C 55.174458 136.321288 22.079094 118.26914 22.080374 96.001298 C 22.078271 73.731504 55.174012 55.681436 95.999777 55.680074 C 136.825542 55.678712 169.920906 73.73086 169.919626 95.998702 Z M 169.919626 95.998702 " transform="matrix(0.5, 0.866025, -0.866025, 0.5, 131.138439, -35.138439)"/>
<path fill-rule="nonzero" fill="url(#radial-pattern-1)" d="M 176.640625 96 C 176.640625 140.535156 140.535156 176.640625 96 176.640625 C 51.464844 176.640625 15.359375 140.535156 15.359375 96 C 15.359375 51.464844 51.464844 15.359375 96 15.359375 C 140.535156 15.359375 176.640625 51.464844 176.640625 96 Z M 176.640625 96 "/>
<path fill-rule="nonzero" fill="rgb(48.627451%, 22.745098%, 92.941176%)" fill-opacity="0.9" d="M 122.898438 163.199219 L 119 110.398438 L 122.898438 163.199219 L 119 110.398438 L 122.898438 163.199219 L 119 110.398438 L 122.898438 163.199219 L 119 110.398438 L 122.898438 163.199219 L 119 110.398438 Z M 122.898438 163.199219 "/>
<path fill-rule="nonzero" fill="url(#radial-pattern-2)" d="M 130.558594 96 C 130.558594 115.085938 115.085938 130.558594 96 130.558594 C 76.914062 130.558594 61.441406 115.085938 61.441406 96 C 61.441406 76.914062 76.914062 61.441406 96 61.441406 C 115.085938 61.441406 130.558594 76.914062 130.558594 96 Z M 130.558594 96 "/>
<path fill-rule="nonzero" fill="rgb(96.078431%, 61.960784%, 4.313725%)" fill-opacity="1" d="M 107.519531 96 C 107.519531 102.363281 102.363281 107.519531 96 107.519531 C 89.636719 107.519531 84.480469 102.363281 84.480469 96 C 84.480469 89.636719 89.636719 84.480469 96 84.480469 C 102.363281 84.480469 107.519531 89.636719 107.519531 96 Z M 107.519531 96 "/>
<path fill-rule="nonzero" fill="rgb(2.352941%, 71.372549%, 83.137255%)" fill-opacity="0.7" d="M 66.238281 75.839844 C 66.238281 80.960938 58.558594 80.960938 58.558594 75.839844 C 58.558594 70.71875 66.238281 70.71875 66.238281 75.839844 Z M 66.238281 75.839844 "/>
<path fill-rule="nonzero" fill="rgb(40.392157%, 90.980392%, 97.647059%)" fill-opacity="0.6" d="M 125.761719 62.398438 C 125.761719 66.238281 120 66.238281 120 62.398438 C 120 58.558594 125.761719 58.558594 125.761719 62.398438 Z M 125.761719 62.398438 "/>
<path fill-rule="nonzero" fill="rgb(65.490196%, 54.509804%, 98.039216%)" fill-opacity="0.5" d="M 139.777344 109.441406 C 139.777344 114.046875 132.863281 114.046875 132.863281 109.441406 C 132.863281 104.832031 139.777344 104.832031 139.777344 109.441406 Z M 139.777344 109.441406 "/>
</svg>
