<?xml version="1.0" encoding="UTF-8"?>
<svg xmlns="http://www.w3.org/2000/svg" xmlns:xlink="http://www.w3.org/1999/xlink" width="72" height="72" viewBox="0 0 72 72">
<defs>
<radialGradient id="radial-pattern-0" gradientUnits="userSpaceOnUse" cx="0.5" cy="0.5" fx="0.5" fy="0.5" r="0.7" gradientTransform="matrix(72, 0, 0, 72, 0, 0)">
<stop offset="0" stop-color="rgb(10.196078%, 10.196078%, 24.313725%)" stop-opacity="1"/>
<stop offset="1" stop-color="rgb(3.921569%, 3.921569%, 10.196078%)" stop-opacity="1"/>
</radialGradient>
<radialGradient id="radial-pattern-1" gradientUnits="userSpaceOnUse" cx="0.5" cy="0.5" fx="0.5" fy="0.5" r="0.5" gradientTransform="matrix(60.48, 0, 0, 60.48, 5.76, 5.76)">
<stop offset="0" stop-color="rgb(65.490196%, 54.509804%, 98.039216%)" stop-opacity="0.6"/>
<stop offset="1" stop-color="rgb(65.490196%, 54.509804%, 98.039216%)" stop-opacity="0"/>
</radialGradient>
<radialGradient id="radial-pattern-2" gradientUnits="userSpaceOnUse" cx="0.5" cy="0.5" fx="0.5" fy="0.5" r="0.5" gradientTransform="matrix(25.92, 0, 0, 25.92, 23.04, 23.04)">
<stop offset="0" stop-color="rgb(96.078431%, 61.960784%, 4.313725%)" stop-opacity="0.8"/>
<stop offset="1" stop-color="rgb(96.078431%, 61.960784%, 4.313725%)" stop-opacity="0"/>
</radialGradient>
</defs>
<path fill-rule="nonzero" fill="url(#radial-pattern-0)" d="M 10.800781 0 L 61.199219 0 C 67.164062 0 72 5.964844 72 10.800781 L 72 61.199219 C 72 67.164062 67.164062 72 61.199219 72 L 10.800781 72 C 4.835938 72 0 66.035156 0 61.199219 L 0 10.800781 C 0 4.835938 4.835938 0 10.800781 0 Z M 10.800781 0 "/>
<path fill="none" stroke-width="0.576" stroke-linecap="butt" stroke-linejoin="miter" stroke="rgb(2.352941%, 71.372549%, 83.137255%)" stroke-opacity="0.4" stroke-miterlimit="4" d="M 51.121094 36 C 51.121094 40.175781 44.351562 43.558594 36 43.558594 C 27.648438 43.558594 20.878906 40.175781 20.878906 36 C 20.878906 31.824219 27.648438 28.441406 36 28.441406 C 44.351562 28.441406 51.121094 31.824219 51.121094 36 Z M 51.121094 36 "/>
<path fill="none" stroke-width="0.432" stroke-linecap="butt" stroke-linejoin="miter" stroke="rgb(48.627451%, 22.745098%, 92.941176%)" stroke-opacity="0.3" stroke-miterlimit="4" d="M 57.420917 36.000553 C 57.418759 42.262441 47.828577 47.339259 35.998168 47.340578 C 24.171143 47.339943 14.578879 42.264717 14.579083 35.999447 C 14.581241 29.737559 24.171423 24.660741 36.001832 24.659422 C 47.828857 24.660057 57.421121 29.735283 57.420917 36.000553 Z M 57.420917 36.000553 " transform="matrix(0.866025, 0.5, -0.5, 0.866025, 22.823085, -13.176915)"/>
<path fill="none" stroke-width="0.288" stroke-linecap="butt" stroke-linejoin="miter" stroke="rgb(40.392157%, 90.980392%, 97.647059%)" stroke-opacity="0.2" stroke-miterlimit="4" d="M 63.721063 36.001335 C 63.718778 44.349043 51.306834 51.120599 35.999059 51.118817 C 20.689332 51.120418 8.280035 44.348325 8.278937 35.998665 C 8.281222 27.650957 20.693166 20.879401 36.000941 20.881183 C 51.310668 20.879582 63.719965 27.651675 63.721063 36.001335 Z M 63.721063 36.001335 " transform="matrix(0.5, 0.866025, -0.866025, 0.5, 49.176915, -13.176915)"/>
<path fill-rule="nonzero" fill="url(#radial-pattern-1)" d="M 66.238281 36 C 66.238281 52.699219 52.699219 66.238281 36 66.238281 C 19.300781 66.238281 5.761719 52.699219 5.761719 36 C 5.761719 19.300781 19.300781 5.761719 36 5.761719 C 52.699219 5.761719 66.238281 19.300781 66.238281 36 Z M 66.238281 36 "/>
<path fill-rule="nonzero" fill="rgb(48.627451%, 22.745098%, 92.941176%)" fill-opacity="0.9" d="M 46.101562 61.199219 L 44.601562 41.398438 L 46.101562 61.199219 L 44.601562 41.398438 L 46.101562 61.199219 L 44.601562 41.398438 L 46.101562 61.199219 L 44.601562 41.398438 L 46.101562 61.199219 L 44.601562 41.398438 Z M 46.101562 61.199219 "/>
<path fill-rule="nonzero" fill="url(#radial-pattern-2)" d="M 48.960938 36 C 48.960938 43.15625 43.15625 48.960938 36 48.960938 C 28.84375 48.960938 23.039062 43.15625 23.039062 36 C 23.039062 28.84375 28.84375 23.039062 36 23.039062 C 43.15625 23.039062 48.960938 28.84375 48.960938 36 Z M 48.960938 36 "/>
<path fill-rule="nonzero" fill="rgb(96.078431%, 61.960784%, 4.313725%)" fill-opacity="1" d="M 40.320312 36 C 40.320312 41.761719 31.679688 41.761719 31.679688 36 C 31.679688 30.238281 40.320312 30.238281 40.320312 36 Z M 40.320312 36 "/>
<path fill-rule="nonzero" fill="rgb(2.352941%, 71.372549%, 83.137255%)" fill-opacity="0.7" d="M 24.839844 28.441406 C 24.839844 30.359375 21.960938 30.359375 21.960938 28.441406 C 21.960938 26.519531 24.839844 26.519531 24.839844 28.441406 Z M 24.839844 28.441406 "/>
<path fill-rule="nonzero" fill="rgb(40.392157%, 90.980392%, 97.647059%)" fill-opacity="0.6" d="M 47.160156 23.398438 C 47.160156 24.839844 45 24.839844 45 23.398438 C 45 21.960938 47.160156 21.960938 47.160156 23.398438 Z M 47.160156 23.398438 "/>
<path fill-rule="nonzero" fill="rgb(65.490196%, 54.509804%, 98.039216%)" fill-opacity="0.5" d="M 52.414062 41.039062 C 52.414062 42.769531 49.824219 42.769531 49.824219 41.039062 C 49.824219 39.3125 52.414062 39.3125 52.414062 41.039062 Z M 52.414062 41.039062 "/>
</svg>
