<?xml version="1.0" encoding="UTF-8"?>
<svg xmlns="http://www.w3.org/2000/svg" xmlns:xlink="http://www.w3.org/1999/xlink" width="48" height="48" viewBox="0 0 48 48">
<defs>
<radialGradient id="radial-pattern-0" gradientUnits="userSpaceOnUse" cx="0.5" cy="0.5" fx="0.5" fy="0.5" r="0.7" gradientTransform="matrix(48, 0, 0, 48, 0, 0)">
<stop offset="0" stop-color="rgb(10.196078%, 10.196078%, 24.313725%)" stop-opacity="1"/>
<stop offset="1" stop-color="rgb(3.921569%, 3.921569%, 10.196078%)" stop-opacity="1"/>
</radialGradient>
<radialGradient id="radial-pattern-1" gradientUnits="userSpaceOnUse" cx="0.5" cy="0.5" fx="0.5" fy="0.5" r="0.5" gradientTransform="matrix(40.32, 0, 0, 40.32, 3.84, 3.84)">
<stop offset="0" stop-color="rgb(65.490196%, 54.509804%, 98.039216%)" stop-opacity="0.6"/>
<stop offset="1" stop-color="rgb(65.490196%, 54.509804%, 98.039216%)" stop-opacity="0"/>
</radialGradient>
<radialGradient id="radial-pattern-2" gradientUnits="userSpaceOnUse" cx="0.5" cy="0.5" fx="0.5" fy="0.5" r="0.5" gradientTransform="matrix(17.28, 0, 0, 17.28, 15.36, 15.36)">
<stop offset="0" stop-color="rgb(96.078431%, 61.960784%, 4.313725%)" stop-opacity="0.8"/>
<stop offset="1" stop-color="rgb(96.078431%, 61.960784%, 4.313725%)" stop-opacity="0"/>
</radialGradient>
</defs>
<path fill-rule="nonzero" fill="url(#radial-pattern-0)" d="M 7.199219 0 L 40.800781 0 C 44.777344 0 48 3.976562 48 7.199219 L 48 40.800781 C 48 44.777344 44.777344 48 40.800781 48 L 7.199219 48 C 3.222656 48 0 44.023438 0 40.800781 L 0 7.199219 C 0 3.222656 3.222656 0 7.199219 0 Z M 7.199219 0 "/>
<path fill="none" stroke-width="0.384" stroke-linecap="butt" stroke-linejoin="miter" stroke="rgb(2.352941%, 71.372549%, 83.137255%)" stroke-opacity="0.4" stroke-miterlimit="4" d="M 34.078125 24 C 34.078125 26.785156 29.566406 29.039062 24 29.039062 C 18.433594 29.039062 13.921875 26.785156 13.921875 24 C 13.921875 21.214844 18.433594 18.960938 24 18.960938 C 29.566406 18.960938 34.078125 21.214844 34.078125 24 Z M 34.078125 24 "/>
<path fill="none" stroke-width="0.288" stroke-linecap="butt" stroke-linejoin="miter" stroke="rgb(48.627451%, 22.745098%, 92.941176%)" stroke-opacity="0.3" stroke-miterlimit="4" d="M 38.280611 24.000369 C 38.279347 28.177867 31.888148 31.56111 23.998779 31.560385 C 16.114746 31.56109 9.721508 28.175176 9.719389 23.999631 C 9.720653 19.822133 16.111852 16.43889 24.001221 16.439615 C 31.885254 16.43891 38.278492 19.824824 38.280611 24.000369 Z M 38.280611 24.000369 " transform="matrix(0.866025, 0.5, -0.5, 0.866025, 15.21539, -8.78461)"/>
<path fill="none" stroke-width="0.192" stroke-linecap="butt" stroke-linejoin="miter" stroke="rgb(40.392157%, 90.980392%, 97.647059%)" stroke-opacity="0.2" stroke-miterlimit="4" d="M 42.47893 24.001367 C 42.48079 29.568458 34.206985 34.078795 23.998722 34.080339 C 13.792411 34.0785 5.520977 29.569107 5.52107 23.998633 C 5.51921 18.431542 13.793015 13.921205 24.001278 13.919661 C 34.207589 13.9215 42.479023 18.430893 42.47893 24.001367 Z M 42.47893 24.001367 " transform="matrix(0.5, 0.866025, -0.866025, 0.5, 32.78461, -8.78461)"/>
<path fill-rule="nonzero" fill="url(#radial-pattern-1)" d="M 44.160156 24 C 44.160156 35.132812 35.132812 44.160156 24 44.160156 C 12.867188 44.160156 3.839844 35.132812 3.839844 24 C 3.839844 12.867188 12.867188 3.839844 24 3.839844 C 35.132812 3.839844 44.160156 12.867188 44.160156 24 Z M 44.160156 24 "/>
<path fill-rule="nonzero" fill="rgb(48.627451%, 22.745098%, 92.941176%)" fill-opacity="0.9" d="M 30.699219 40.800781 L 29.800781 27.601562 L 30.699219 40.800781 L 29.800781 27.601562 L 30.699219 40.800781 L 29.800781 27.601562 L 30.699219 40.800781 L 29.800781 27.601562 L 30.699219 40.800781 L 29.800781 27.601562 Z M 30.699219 40.800781 "/>
<path fill-rule="nonzero" fill="url(#radial-pattern-2)" d="M 32.640625 24 C 32.640625 28.773438 28.773438 32.640625 24 32.640625 C 19.226562 32.640625 15.359375 28.773438 15.359375 24 C 15.359375 19.226562 19.226562 15.359375 24 15.359375 C 28.773438 15.359375 32.640625 19.226562 32.640625 24 Z M 32.640625 24 "/>
<path fill-rule="nonzero" fill="rgb(96.078431%, 61.960784%, 4.313725%)" fill-opacity="1" d="M 26.878906 24 C 26.878906 27.839844 21.121094 27.839844 21.121094 24 C 21.121094 20.160156 26.878906 20.160156 26.878906 24 Z M 26.878906 24 "/>
<path fill-rule="nonzero" fill="rgb(2.352941%, 71.372549%, 83.137255%)" fill-opacity="0.7" d="M 16.558594 18.960938 C 16.558594 20.238281 14.640625 20.238281 14.640625 18.960938 C 14.640625 17.679688 16.558594 17.679688 16.558594 18.960938 Z M 16.558594 18.960938 "/>
<path fill-rule="nonzero" fill="rgb(40.392157%, 90.980392%, 97.647059%)" fill-opacity="0.6" d="M 31.441406 15.601562 C 31.441406 16.558594 30 16.558594 30 15.601562 C 30 14.640625 31.441406 14.640625 31.441406 15.601562 Z M 31.441406 15.601562 "/>
<path fill-rule="nonzero" fill="rgb(65.490196%, 54.509804%, 98.039216%)" fill-opacity="0.5" d="M 34.945312 27.359375 C 34.945312 28.511719 33.214844 28.511719 33.214844 27.359375 C 33.214844 26.207031 34.945312 26.207031 34.945312 27.359375 Z M 34.945312 27.359375 "/>
</svg>
