<?xml version="1.0" encoding="UTF-8"?>
<svg xmlns="http://www.w3.org/2000/svg" xmlns:xlink="http://www.w3.org/1999/xlink" width="144" height="144" viewBox="0 0 144 144">
<defs>
<radialGradient id="radial-pattern-0" gradientUnits="userSpaceOnUse" cx="0.5" cy="0.5" fx="0.5" fy="0.5" r="0.7" gradientTransform="matrix(144, 0, 0, 144, 0, 0)">
<stop offset="0" stop-color="rgb(10.196078%, 10.196078%, 24.313725%)" stop-opacity="1"/>
<stop offset="1" stop-color="rgb(3.921569%, 3.921569%, 10.196078%)" stop-opacity="1"/>
</radialGradient>
<radialGradient id="radial-pattern-1" gradientUnits="userSpaceOnUse" cx="0.5" cy="0.5" fx="0.5" fy="0.5" r="0.5" gradientTransform="matrix(120.96, 0, 0, 120.96, 11.52, 11.52)">
<stop offset="0" stop-color="rgb(65.490196%, 54.509804%, 98.039216%)" stop-opacity="0.6"/>
<stop offset="1" stop-color="rgb(65.490196%, 54.509804%, 98.039216%)" stop-opacity="0"/>
</radialGradient>
<radialGradient id="radial-pattern-2" gradientUnits="userSpaceOnUse" cx="0.5" cy="0.5" fx="0.5" fy="0.5" r="0.5" gradientTransform="matrix(51.84, 0, 0, 51.84, 46.08, 46.08)">
<stop offset="0" stop-color="rgb(96.078431%, 61.960784%, 4.313725%)" stop-opacity="0.8"/>
<stop offset="1" stop-color="rgb(96.078431%, 61.960784%, 4.313725%)" stop-opacity="0"/>
</radialGradient>
</defs>
<path fill-rule="nonzero" fill="url(#radial-pattern-0)" d="M 21.601562 0 L 122.402344 0 C 134.332031 0 144.003906 11.929688 144.003906 21.601562 L 144.003906 122.402344 C 144.003906 134.332031 134.332031 144.003906 122.402344 144.003906 L 21.601562 144.003906 C 9.671875 144.003906 0 132.074219 0 122.402344 L 0 21.601562 C 0 9.671875 9.671875 0 21.601562 0 Z M 21.601562 0 "/>
<path fill="none" stroke-width="1.152" stroke-linecap="butt" stroke-linejoin="miter" stroke="rgb(2.352941%, 71.372549%, 83.137255%)" stroke-opacity="0.4" stroke-miterlimit="4" d="M 102.238281 72 C 102.238281 80.351562 88.699219 87.121094 72 87.121094 C 55.300781 87.121094 41.761719 80.351562 41.761719 72 C 41.761719 63.648438 55.300781 56.878906 72 56.878906 C 88.699219 56.878906 102.238281 63.648438 102.238281 72 Z M 102.238281 72 "/>
<path fill="none" stroke-width="0.864" stroke-linecap="butt" stroke-linejoin="miter" stroke="rgb(48.627451%, 22.745098%, 92.941176%)" stroke-opacity="0.3" stroke-miterlimit="4" d="M 114.841833 72.001107 C 114.839471 84.528265 95.659107 94.681901 71.99972 94.679202 C 48.342285 94.679886 29.159187 84.524099 29.158167 71.998893 C 29.160529 59.471735 48.340893 49.318099 72.00028 49.320798 C 95.657715 49.320114 114.840813 59.475901 114.841833 72.001107 Z M 114.841833 72.001107 " transform="matrix(0.866025, 0.5, -0.5, 0.866025, 45.646171, -26.353829)"/>
<path fill="none" stroke-width="0.576" stroke-linecap="butt" stroke-linejoin="miter" stroke="rgb(40.392157%, 90.980392%, 97.647059%)" stroke-opacity="0.2" stroke-miterlimit="4" d="M 127.438743 72.000718 C 127.44094 88.700038 102.619003 102.239769 72.001501 102.239587 C 41.380617 102.237453 16.5615 88.701986 16.561257 71.999282 C 16.55906 55.299962 41.380997 41.760231 71.998499 41.760413 C 102.619383 41.762547 127.4385 55.298014 127.438743 72.000718 Z M 127.438743 72.000718 " transform="matrix(0.5, 0.866025, -0.866025, 0.5, 98.353829, -26.353829)"/>
<path fill-rule="nonzero" fill="url(#radial-pattern-1)" d="M 132.480469 72 C 132.480469 105.402344 105.402344 132.480469 72 132.480469 C 38.597656 132.480469 11.519531 105.402344 11.519531 72 C 11.519531 38.597656 38.597656 11.519531 72 11.519531 C 105.402344 11.519531 132.480469 38.597656 132.480469 72 Z M 132.480469 72 "/>
<path fill-rule="nonzero" fill="rgb(48.627451%, 22.745098%, 92.941176%)" fill-opacity="0.9" d="M 92.199219 122.398438 L 89.300781 82.800781 L 92.199219 122.398438 L 89.300781 82.800781 L 92.199219 122.398438 L 89.300781 82.800781 L 92.199219 122.398438 L 89.300781 82.800781 L 92.199219 122.398438 L 89.300781 82.800781 Z M 92.199219 122.398438 "/>
<path fill-rule="nonzero" fill="url(#radial-pattern-2)" d="M 97.921875 72 C 97.921875 86.316406 86.316406 97.921875 72 97.921875 C 57.683594 97.921875 46.078125 86.316406 46.078125 72 C 46.078125 57.683594 57.683594 46.078125 72 46.078125 C 86.316406 46.078125 97.921875 57.683594 97.921875 72 Z M 97.921875 72 "/>
<path fill-rule="nonzero" fill="rgb(96.078431%, 61.960784%, 4.313725%)" fill-opacity="1" d="M 80.640625 72 C 80.640625 76.773438 76.773438 80.640625 72 80.640625 C 67.226562 80.640625 63.359375 76.773438 63.359375 72 C 63.359375 67.226562 67.226562 63.359375 72 63.359375 C 76.773438 63.359375 80.640625 67.226562 80.640625 72 Z M 80.640625 72 "/>
<path fill-rule="nonzero" fill="rgb(2.352941%, 71.372549%, 83.137255%)" fill-opacity="0.7" d="M 49.679688 56.878906 C 49.679688 60.71875 43.921875 60.71875 43.921875 56.878906 C 43.921875 53.039062 49.679688 53.039062 49.679688 56.878906 Z M 49.679688 56.878906 "/>
<path fill-rule="nonzero" fill="rgb(40.392157%, 90.980392%, 97.647059%)" fill-opacity="0.6" d="M 94.320312 46.800781 C 94.320312 49.679688 90 49.679688 90 46.800781 C 90 43.921875 94.320312 43.921875 94.320312 46.800781 Z M 94.320312 46.800781 "/>
<path fill-rule="nonzero" fill="rgb(65.490196%, 54.509804%, 98.039216%)" fill-opacity="0.5" d="M 104.832031 82.078125 C 104.832031 85.535156 99.648438 85.535156 99.648438 82.078125 C 99.648438 78.625 104.832031 78.625 104.832031 82.078125 Z M 104.832031 82.078125 "/>
</svg>
