<?xml version="1.0" encoding="UTF-8"?>
<svg xmlns="http://www.w3.org/2000/svg" xmlns:xlink="http://www.w3.org/1999/xlink" width="96" height="96" viewBox="0 0 96 96">
<defs>
<radialGradient id="radial-pattern-0" gradientUnits="userSpaceOnUse" cx="0.5" cy="0.5" fx="0.5" fy="0.5" r="0.7" gradientTransform="matrix(96, 0, 0, 96, 0, 0)">
<stop offset="0" stop-color="rgb(10.196078%, 10.196078%, 24.313725%)" stop-opacity="1"/>
<stop offset="1" stop-color="rgb(3.921569%, 3.921569%, 10.196078%)" stop-opacity="1"/>
</radialGradient>
<radialGradient id="radial-pattern-1" gradientUnits="userSpaceOnUse" cx="0.5" cy="0.5" fx="0.5" fy="0.5" r="0.5" gradientTransform="matrix(80.64, 0, 0, 80.64, 7.68, 7.68)">
<stop offset="0" stop-color="rgb(65.490196%, 54.509804%, 98.039216%)" stop-opacity="0.6"/>
<stop offset="1" stop-color="rgb(65.490196%, 54.509804%, 98.039216%)" stop-opacity="0"/>
</radialGradient>
<radialGradient id="radial-pattern-2" gradientUnits="userSpaceOnUse" cx="0.5" cy="0.5" fx="0.5" fy="0.5" r="0.5" gradientTransform="matrix(34.56, 0, 0, 34.56, 30.72, 30.72)">
<stop offset="0" stop-color="rgb(96.078431%, 61.960784%, 4.313725%)" stop-opacity="0.8"/>
<stop offset="1" stop-color="rgb(96.078431%, 61.960784%, 4.313725%)" stop-opacity="0"/>
</radialGradient>
</defs>
<path fill-rule="nonzero" fill="url(#radial-pattern-0)" d="M 14.398438 0 L 81.597656 0 C 89.550781 0 95.996094 7.953125 95.996094 14.398438 L 95.996094 81.597656 C 95.996094 89.550781 89.550781 95.996094 81.597656 95.996094 L 14.398438 95.996094 C 6.445312 95.996094 0 88.042969 0 81.597656 L 0 14.398438 C 0 6.445312 6.445312 0 14.398438 0 Z M 14.398438 0 "/>
<path fill="none" stroke-width="0.768" stroke-linecap="butt" stroke-linejoin="miter" stroke="rgb(2.352941%, 71.372549%, 83.137255%)" stroke-opacity="0.4" stroke-miterlimit="4" d="M 68.160156 48 C 68.160156 53.566406 59.132812 58.078125 48 58.078125 C 36.867188 58.078125 27.839844 53.566406 27.839844 48 C 27.839844 42.433594 36.867188 37.921875 48 37.921875 C 59.132812 37.921875 68.160156 42.433594 68.160156 48 Z M 68.160156 48 "/>
<path fill="none" stroke-width="0.576" stroke-linecap="butt" stroke-linejoin="miter" stroke="rgb(48.627451%, 22.745098%, 92.941176%)" stroke-opacity="0.3" stroke-miterlimit="4" d="M 76.561222 48.000738 C 76.560124 56.350398 63.774343 63.118838 48.000941 63.118817 C 32.227539 63.118796 19.439633 56.352305 19.438778 47.999262 C 19.439876 39.649602 32.225657 32.881162 47.999059 32.881183 C 63.772461 32.881204 76.560367 39.647695 76.561222 48.000738 Z M 76.561222 48.000738 " transform="matrix(0.866025, 0.5, -0.5, 0.866025, 30.430781, -17.569219)"/>
<path fill="none" stroke-width="0.384" stroke-linecap="butt" stroke-linejoin="miter" stroke="rgb(40.392157%, 90.980392%, 97.647059%)" stroke-opacity="0.2" stroke-miterlimit="4" d="M 84.959813 47.999351 C 84.958197 59.134963 68.412018 68.160973 47.997444 68.160678 C 27.588205 68.158953 11.040524 59.132878 11.040187 48.000649 C 11.041803 36.865037 27.587982 27.839027 48.002556 27.839322 C 68.411795 27.841047 84.959476 36.867122 84.959813 47.999351 Z M 84.959813 47.999351 " transform="matrix(0.5, 0.866025, -0.866025, 0.5, 65.569219, -17.569219)"/>
<path fill-rule="nonzero" fill="url(#radial-pattern-1)" d="M 88.320312 48 C 88.320312 70.269531 70.269531 88.320312 48 88.320312 C 25.730469 88.320312 7.679688 70.269531 7.679688 48 C 7.679688 25.730469 25.730469 7.679688 48 7.679688 C 70.269531 7.679688 88.320312 25.730469 88.320312 48 Z M 88.320312 48 "/>
<path fill-rule="nonzero" fill="rgb(48.627451%, 22.745098%, 92.941176%)" fill-opacity="0.9" d="M 61.398438 81.601562 L 59.5 55.199219 L 61.398438 81.601562 L 59.5 55.199219 L 61.398438 81.601562 L 59.5 55.199219 L 61.398438 81.601562 L 59.5 55.199219 L 61.398438 81.601562 L 59.5 55.199219 Z M 61.398438 81.601562 "/>
<path fill-rule="nonzero" fill="url(#radial-pattern-2)" d="M 65.28125 48 C 65.28125 57.542969 57.542969 65.28125 48 65.28125 C 38.457031 65.28125 30.71875 57.542969 30.71875 48 C 30.71875 38.457031 38.457031 30.71875 48 30.71875 C 57.542969 30.71875 65.28125 38.457031 65.28125 48 Z M 65.28125 48 "/>
<path fill-rule="nonzero" fill="rgb(96.078431%, 61.960784%, 4.313725%)" fill-opacity="1" d="M 53.761719 48 C 53.761719 51.179688 51.179688 53.761719 48 53.761719 C 44.820312 53.761719 42.238281 51.179688 42.238281 48 C 42.238281 44.820312 44.820312 42.238281 48 42.238281 C 51.179688 42.238281 53.761719 44.820312 53.761719 48 Z M 53.761719 48 "/>
<path fill-rule="nonzero" fill="rgb(2.352941%, 71.372549%, 83.137255%)" fill-opacity="0.7" d="M 33.121094 37.921875 C 33.121094 40.480469 29.28125 40.480469 29.28125 37.921875 C 29.28125 35.359375 33.121094 35.359375 33.121094 37.921875 Z M 33.121094 37.921875 "/>
<path fill-rule="nonzero" fill="rgb(40.392157%, 90.980392%, 97.647059%)" fill-opacity="0.6" d="M 62.878906 31.199219 C 62.878906 33.121094 60 33.121094 60 31.199219 C 60 29.28125 62.878906 29.28125 62.878906 31.199219 Z M 62.878906 31.199219 "/>
<path fill-rule="nonzero" fill="rgb(65.490196%, 54.509804%, 98.039216%)" fill-opacity="0.5" d="M 69.886719 54.71875 C 69.886719 57.023438 66.433594 57.023438 66.433594 54.71875 C 66.433594 52.414062 69.886719 52.414062 69.886719 54.71875 Z M 69.886719 54.71875 "/>
</svg>
